<svg width="16" height="16" viewBox="0 0 16 16" fill="none" xmlns="http://www.w3.org/2000/svg">
<g clip-path="url(#clip0_401_221)">
<path d="M8.00521 14.6668C11.6872 14.6668 14.6719 11.6822 14.6719 8.00016C14.6719 4.31816 11.6872 1.3335 8.00521 1.3335C5.01987 1.3335 2.52121 3.2955 1.67188 6.00016H3.33854" stroke="white" stroke-width="1.5" stroke-linecap="round" stroke-linejoin="round"/>
<path d="M8.0026 5.33398V8.00065L9.33594 9.33398M1.33594 8.00065C1.33594 8.2251 1.34594 8.44732 1.36594 8.66732M6.0026 14.6673C5.77586 14.5922 5.55332 14.505 5.33594 14.406M2.1426 11.334C2.01351 11.0843 1.89888 10.8275 1.79927 10.5647M3.22327 12.8713C3.42772 13.0913 3.64483 13.2964 3.8746 13.4867" stroke="white" stroke-width="1.5" stroke-linecap="round" stroke-linejoin="round"/>
</g>
<defs>
<clipPath id="clip0_401_221">
<rect width="16" height="16" fill="white"/>
</clipPath>
</defs>
</svg>
