<svg width="16" height="16" viewBox="0 0 16 16" fill="none" xmlns="http://www.w3.org/2000/svg">
<g clip-path="url(#clip0_402_266)">
<path d="M7.99991 0.5C4.24991 0.5 0.5 2.375 0.5 5.18744C0.5 7.06244 1.90625 7.99988 1.90625 9.87488C1.90625 11.2811 1.4375 11.2811 1.4375 12.2186C1.4375 12.6873 2.93781 13.2187 4.24994 13.6248V15.4998H11.7498V13.6248C11.7498 13.6248 14.5801 12.7512 14.5623 12.2186C14.5332 11.3452 14.0936 11.2811 14.0936 9.87488C14.0936 8.93738 15.5199 7.018 15.4998 5.18744C15.4998 2.37494 11.7498 0.5 7.99991 0.5ZM5.18741 6.12491C6.22294 6.12491 7.06241 6.96441 7.06241 7.99991C7.06241 9.03541 6.22294 9.87491 5.18741 9.87491C4.15197 9.87488 3.3125 9.03538 3.3125 7.99988C3.3125 6.96438 4.15194 6.12488 5.18744 6.12488L5.18741 6.12491ZM10.8123 6.12491C11.8478 6.12491 12.6873 6.96441 12.6873 7.99991C12.6873 9.03541 11.8478 9.87491 10.8123 9.87491C9.77684 9.87491 8.93734 9.03541 8.93734 7.99991C8.93734 6.96441 9.77684 6.12491 10.8123 6.12491ZM7.99991 9.40616C8.46866 9.40616 9.40616 11.2812 9.40616 11.7499C9.40616 12.6873 9.40616 12.6873 8.93741 12.6873H7.06241C6.59366 12.6873 6.59366 12.6873 6.59366 11.7498C6.59366 11.2811 7.53116 9.40616 7.99991 9.40616Z" fill="white"/>
</g>
<defs>
<clipPath id="clip0_402_266">
<rect width="16" height="16" fill="white"/>
</clipPath>
</defs>
</svg>
