<svg width="16" height="16" viewBox="0 0 16 16" fill="none" xmlns="http://www.w3.org/2000/svg">
<path d="M14.1308 7.30016L7.9975 15.3335L1.85083 7.30683L1.91083 7.2535C2.05083 7.1135 2.2175 7.00016 2.38417 6.90683L7.15083 13.1268L5.7175 8.66683L6.1575 7.8735L7.9975 13.5868L9.8175 7.86683L10.2642 8.66683L8.84417 13.1268L13.6042 6.90016C13.7708 7.00016 13.9308 7.0935 14.0642 7.2335L14.1308 7.30016ZM3.33083 6.00016C4.33083 6.00016 5.20417 6.5735 5.66417 7.40016C5.8899 6.97742 6.22619 6.6239 6.63713 6.37733C7.04808 6.13076 7.51826 6.0004 7.9975 6.00016C8.9975 6.00016 9.86417 6.56683 10.3308 7.3935C10.5552 6.97009 10.8913 6.6163 11.3027 6.37064C11.7141 6.12497 12.185 5.99683 12.6642 6.00016C13.3908 6.00016 14.0575 6.28016 14.5375 6.76016C13.9575 3.66683 11.2508 1.3335 7.9975 1.3335C4.72417 1.3335 2.0175 3.66683 1.4375 6.78016C1.92417 6.30016 2.59083 6.00016 3.33083 6.00016Z" fill="white"/>
</svg>
