<svg width="16" height="16" viewBox="0 0 16 16" fill="none" xmlns="http://www.w3.org/2000/svg">
<path d="M11.3359 11.3335H10.0026V15.3335H8.66927V11.3335H7.25594L6.22927 12.6202L7.80927 14.1935L6.8626 15.1402L5.28927 13.5602C5.05594 13.3335 4.9226 13.0202 4.9026 12.6935C4.8826 12.3668 4.9826 12.0402 5.18927 11.7868L5.54927 11.3335H4.66927L6.0026 8.66683V6.66683C5.58927 6.98016 5.25594 7.38016 5.0226 7.84016C4.78927 8.30683 4.66927 8.8135 4.66927 9.3335H3.33594C3.33594 8.09582 3.8276 6.90883 4.70277 6.03366C5.57794 5.1585 6.76493 4.66683 8.0026 4.66683C8.88927 4.66683 9.73594 4.3135 10.3626 3.6935C10.9826 3.06683 11.3359 2.22016 11.3359 1.3335H12.6693C12.6693 2.2135 12.4159 3.08016 11.9426 3.82016C11.4714 4.56523 10.7988 5.16158 10.0026 5.54016V8.66683L11.3359 11.3335ZM9.33594 2.66683C9.33594 2.9335 9.25594 3.18683 9.10927 3.40683C8.9626 3.62683 8.75594 3.80016 8.51594 3.90016C8.27186 4.00061 8.00346 4.02635 7.74474 3.97413C7.48602 3.92191 7.24862 3.79408 7.0626 3.60683C6.87594 3.42016 6.74927 3.18683 6.69594 2.92683C6.6426 2.66683 6.66927 2.40016 6.76927 2.16016C6.86927 1.9135 7.0426 1.70683 7.2626 1.56016C7.4826 1.4135 7.73594 1.3335 8.0026 1.3335C8.35594 1.3335 8.69594 1.4735 8.9426 1.72683C9.19594 1.9735 9.33594 2.3135 9.33594 2.66683Z" fill="white"/>
</svg>
