<svg width="16" height="16" viewBox="0 0 16 16" fill="none" xmlns="http://www.w3.org/2000/svg">
<g clip-path="url(#clip0_402_270)">
<path fill-rule="evenodd" clip-rule="evenodd" d="M12.6283 1.13253C12.6283 0.905205 12.538 0.687187 12.3773 0.526442C12.2165 0.365696 11.9985 0.275391 11.7712 0.275391C11.5439 0.275391 11.3258 0.365696 11.1651 0.526442C11.0043 0.687187 10.914 0.905205 10.914 1.13253V2.14282C10.914 2.2186 10.8839 2.29127 10.8304 2.34485C10.7768 2.39843 10.7041 2.42853 10.6283 2.42853H9.14604C8.6156 2.42853 8.10689 2.63925 7.73182 3.01432C7.35675 3.38939 7.14604 3.8981 7.14604 4.42853V5.43882H4.78604C3.94216 5.43873 3.12789 5.74986 2.49909 6.31266C1.8703 6.87545 1.47114 7.65038 1.37804 8.4891L0.899178 12.7988C0.830322 13.4138 0.980133 14.0333 1.32235 14.5488C1.66456 15.0644 2.17733 15.443 2.77075 15.6183C3.36417 15.7936 4.00037 15.7544 4.5678 15.5076C5.13523 15.2608 5.59767 14.8222 5.87404 14.2685L6.28889 13.4388H9.71746L10.1323 14.2685C10.4087 14.8222 10.8711 15.2608 11.4386 15.5076C12.006 15.7544 12.6422 15.7936 13.2356 15.6183C13.829 15.443 14.3418 15.0644 14.684 14.5488C15.0262 14.0333 15.176 13.4138 15.1072 12.7988L14.6272 8.4891C14.5344 7.65037 14.1355 6.87533 13.5069 6.31232C12.8783 5.74932 12.0642 5.4379 11.2203 5.43768H8.86032V4.42853C8.86032 4.35276 8.89042 4.28008 8.944 4.2265C8.99759 4.17292 9.07026 4.14282 9.14604 4.14282H10.6283C11.1588 4.14282 11.6675 3.93211 12.0425 3.55703C12.4176 3.18196 12.6283 2.67325 12.6283 2.14282V1.13253ZM5.00318 7.58168C5.39746 7.58168 5.71746 7.90168 5.71746 8.29596V8.91425H6.33689C6.52633 8.91425 6.70801 8.9895 6.84197 9.12346C6.97592 9.25741 7.05118 9.43909 7.05118 9.62853C7.05118 9.81797 6.97592 9.99965 6.84197 10.1336C6.70801 10.2676 6.52633 10.3428 6.33689 10.3428H5.71746V10.9611C5.71746 11.1505 5.64221 11.3322 5.50825 11.4662C5.3743 11.6001 5.19262 11.6754 5.00318 11.6754C4.81374 11.6754 4.63206 11.6001 4.4981 11.4662C4.36415 11.3322 4.28889 11.1505 4.28889 10.9611V10.3428H3.66946C3.48002 10.3428 3.29834 10.2676 3.16439 10.1336C3.03043 9.99965 2.95518 9.81797 2.95518 9.62853C2.95518 9.43909 3.03043 9.25741 3.16439 9.12346C3.29834 8.9895 3.48002 8.91425 3.66946 8.91425H4.28889V8.29482C4.28889 7.90053 4.60889 7.58168 5.00318 7.58168ZM10.5918 11.0582C10.7812 11.0582 10.9629 10.983 11.0968 10.849C11.2308 10.7151 11.306 10.5334 11.306 10.344C11.306 10.1545 11.2308 9.97284 11.0968 9.83889C10.9629 9.70493 10.7812 9.62968 10.5918 9.62968C10.4023 9.62968 10.2206 9.70493 10.0867 9.83889C9.95272 9.97284 9.87746 10.1545 9.87746 10.344C9.87746 10.5334 9.95272 10.7151 10.0867 10.849C10.2206 10.983 10.4023 11.0582 10.5918 11.0582ZM12.7369 8.57139C12.7369 8.76083 12.6616 8.94251 12.5277 9.07647C12.3937 9.21042 12.212 9.28568 12.0226 9.28568C11.8332 9.28568 11.6515 9.21042 11.5175 9.07647C11.3836 8.94251 11.3083 8.76083 11.3083 8.57139C11.3083 8.38195 11.3836 8.20027 11.5175 8.06631C11.6515 7.93236 11.8332 7.8571 12.0226 7.8571C12.212 7.8571 12.3937 7.93236 12.5277 8.06631C12.6616 8.20027 12.7369 8.38195 12.7369 8.57139Z" fill="white"/>
</g>
<defs>
<clipPath id="clip0_402_270">
<rect width="16" height="16" fill="white"/>
</clipPath>
</defs>
</svg>
