<svg width="16" height="16" viewBox="0 0 16 16" fill="none" xmlns="http://www.w3.org/2000/svg">
<path d="M8.66927 5.21967C9.23594 5.01967 9.68927 4.56634 9.88927 3.99967H12.0026L10.0026 8.66634C10.0026 9.77301 11.0493 10.6663 12.3359 10.6663C13.6226 10.6663 14.6693 9.77301 14.6693 8.66634L12.6693 3.99967H14.0026V2.66634H9.88927C9.61594 1.88634 8.87594 1.33301 8.0026 1.33301C7.12927 1.33301 6.38927 1.88634 6.11594 2.66634H2.0026V3.99967H3.33594L1.33594 8.66634C1.33594 9.77301 2.3826 10.6663 3.66927 10.6663C4.95594 10.6663 6.0026 9.77301 6.0026 8.66634L4.0026 3.99967H6.11594C6.31594 4.56634 6.76927 5.01967 7.33594 5.21967V12.6663H1.33594V13.9997H14.6693V12.6663H8.66927V5.21967ZM13.5826 8.66634H11.0893L12.3359 5.75967L13.5826 8.66634ZM4.91594 8.66634H2.4226L3.66927 5.75967L4.91594 8.66634ZM8.0026 3.99967C7.63594 3.99967 7.33594 3.69967 7.33594 3.33301C7.33594 2.96634 7.63594 2.66634 8.0026 2.66634C8.36927 2.66634 8.66927 2.96634 8.66927 3.33301C8.66927 3.69967 8.36927 3.99967 8.0026 3.99967Z" fill="white"/>
</svg>
