<svg width="16" height="16" viewBox="0 0 16 16" fill="none" xmlns="http://www.w3.org/2000/svg">
<path d="M14.6667 1.75C14.6667 1.33437 14.3694 1 14 1C13.6306 1 13.3333 1.33437 13.3333 1.75V2H0.888889C0.397222 2 0 2.44687 0 3V6.5C0 7.05312 0.397222 7.5 0.888889 7.5H1.16667C1.74444 7.5 2.16944 8.1125 2.02778 8.74375L0.916667 13.7563C0.85 14.0563 0.911111 14.3719 1.07778 14.6156C1.24444 14.8594 1.50278 15 1.77778 15H4.44444C4.85278 15 5.20833 14.6875 5.30556 14.2437L6.02778 11H8.92778C9.58611 11 10.1722 10.5344 10.3917 9.8375L11.1361 7.5H12C12.2361 7.5 12.4611 7.39375 12.6278 7.20625L13.2583 6.5H15.1111C15.6028 6.5 16 6.05312 16 5.5V3C16 2.44687 15.6028 2 15.1111 2H14.6667V1.75ZM8.92778 9.5H6.36111L6.80556 7.5H9.72222L9.13889 9.33438C9.10833 9.43438 9.02222 9.5 8.93056 9.5H8.92778ZM2.22222 4H12.8889C13.1333 4 13.3333 4.225 13.3333 4.5C13.3333 4.775 13.1333 5 12.8889 5H2.22222C1.97778 5 1.77778 4.775 1.77778 4.5C1.77778 4.225 1.97778 4 2.22222 4Z" fill="white"/>
</svg>
