<svg width="16" height="16" viewBox="0 0 16 16" fill="none" xmlns="http://www.w3.org/2000/svg">
<path d="M10.6667 1.3335C10.8435 1.3335 11.013 1.40373 11.1381 1.52876C11.2631 1.65378 11.3333 1.82335 11.3333 2.00016V2.66683L11.4667 2.67016C12.127 2.70322 12.7515 2.98038 13.219 3.44788C13.6864 3.91537 13.9636 4.53985 13.9967 5.20016L14 5.3335V11.3335C14.0001 11.9064 13.8156 12.464 13.474 12.9239C13.1324 13.3838 12.6518 13.7214 12.1033 13.8868L12 13.9155V14.0002C12 14.1635 11.94 14.3211 11.8315 14.4431C11.723 14.5651 11.5735 14.6431 11.4113 14.6622L11.3333 14.6668H4.66667C4.48986 14.6668 4.32029 14.5966 4.19526 14.4716C4.07024 14.3465 4 14.177 4 14.0002V13.9155L3.89667 13.8875C3.36991 13.7286 2.9052 13.4107 2.56623 12.9773C2.22727 12.544 2.03065 12.0163 2.00333 11.4668L2 11.3335V5.3335C2 4.62625 2.28095 3.94797 2.78105 3.44788C3.28115 2.94778 3.95942 2.66683 4.66667 2.66683V2.00016C4.66667 1.82335 4.7369 1.65378 4.86193 1.52876C4.98695 1.40373 5.15652 1.3335 5.33333 1.3335H10.6667ZM10.1333 9.52416C10.0071 9.40041 9.83685 9.33187 9.66007 9.33362C9.48329 9.33537 9.31444 9.40727 9.19067 9.5335C9.03548 9.69193 8.85023 9.81781 8.64578 9.90374C8.44133 9.98967 8.22178 10.0339 8 10.0339C7.77822 10.0339 7.55867 9.98967 7.35422 9.90374C7.14977 9.81781 6.96452 9.69193 6.80933 9.5335C6.68493 9.41018 6.517 9.34078 6.34184 9.3403C6.16668 9.33981 5.99836 9.40829 5.87329 9.53091C5.74821 9.65354 5.67641 9.82046 5.67343 9.9956C5.67044 10.1707 5.73651 10.34 5.85733 10.4668C6.13665 10.7519 6.47003 10.9783 6.83795 11.1329C7.20587 11.2875 7.60093 11.3671 8 11.3671C8.39907 11.3671 8.79413 11.2875 9.16205 11.1329C9.52997 10.9783 9.86335 10.7519 10.1427 10.4668C10.2664 10.3406 10.335 10.1703 10.3332 9.99356C10.3315 9.81678 10.2596 9.64794 10.1333 9.52416ZM6.34 6.66683H6.33333C6.15652 6.66683 5.98695 6.73707 5.86193 6.86209C5.7369 6.98712 5.66667 7.15668 5.66667 7.3335C5.66667 7.51031 5.7369 7.67988 5.86193 7.8049C5.98695 7.92992 6.15652 8.00016 6.33333 8.00016H6.34C6.51681 8.00016 6.68638 7.92992 6.8114 7.8049C6.93643 7.67988 7.00667 7.51031 7.00667 7.3335C7.00667 7.15668 6.93643 6.98712 6.8114 6.86209C6.68638 6.73707 6.51681 6.66683 6.34 6.66683ZM9.67333 6.66683H9.66667C9.48986 6.66683 9.32029 6.73707 9.19526 6.86209C9.07024 6.98712 9 7.15668 9 7.3335C9 7.51031 9.07024 7.67988 9.19526 7.8049C9.32029 7.92992 9.48986 8.00016 9.66667 8.00016H9.67333C9.85014 8.00016 10.0197 7.92992 10.1447 7.8049C10.2698 7.67988 10.34 7.51031 10.34 7.3335C10.34 7.15668 10.2698 6.98712 10.1447 6.86209C10.0197 6.73707 9.85014 6.66683 9.67333 6.66683Z" fill="white"/>
</svg>
