<svg width="16" height="16" viewBox="0 0 16 16" fill="none" xmlns="http://www.w3.org/2000/svg">
<g clip-path="url(#clip0_399_204)">
<path d="M9.33915 3.08245C9.85306 3.65076 10.2191 4.33685 10.4051 5.08016C10.591 5.82348 10.591 6.60113 10.4051 7.34445L10.3578 7.51912L12.6245 10.4345C12.8153 10.6798 12.9394 10.9703 12.9846 11.2778C13.0298 11.5853 12.9946 11.8993 12.8825 12.1891C12.9626 12.2116 13.0468 12.215 13.1285 12.1991L13.2085 12.1791C13.3755 12.1258 13.5567 12.1405 13.713 12.2199C13.8693 12.2992 13.988 12.437 14.0435 12.6032C14.099 12.7695 14.0867 12.9509 14.0094 13.1082C13.9321 13.2656 13.796 13.3861 13.6305 13.4438C13.197 13.5927 12.7237 13.5751 12.3025 13.3945C12.1713 13.339 12.047 13.2688 11.9318 13.1851C11.6554 13.3072 11.3528 13.3578 11.0517 13.3322C10.7507 13.3065 10.4609 13.2055 10.2091 13.0385L10.0998 12.9591L7.18515 10.6925C6.42038 10.9156 5.61122 10.9393 4.83472 10.7612C4.05822 10.5831 3.34024 10.2092 2.74915 9.67512C4.17365 8.97984 5.47233 8.05202 6.59181 6.92979C7.71512 5.80926 8.64364 4.50852 9.33915 3.08245ZM8.27781 2.20912C7.63445 3.61525 6.74414 4.89461 5.64915 5.98645C4.55794 7.08047 3.27951 7.97008 1.87448 8.61312C1.33981 7.7205 1.11864 6.67484 1.24611 5.64217C1.37357 4.6095 1.84235 3.64901 2.57802 2.91318C3.31369 2.17736 4.27409 1.70838 5.30673 1.5807C6.33938 1.45302 7.38508 1.67463 8.27781 2.20912Z" fill="white"/>
</g>
<defs>
<clipPath id="clip0_399_204">
<rect width="16" height="16" fill="white"/>
</clipPath>
</defs>
</svg>
