<svg width="16" height="16" viewBox="0 0 16 16" fill="none" xmlns="http://www.w3.org/2000/svg">
<path d="M5 13V10H9V10.5C9 10.6326 9.05268 10.7598 9.14645 10.8536C9.24021 10.9473 9.36739 11 9.5 11C9.63261 11 9.75979 10.9473 9.85355 10.8536C9.94732 10.7598 10 10.6326 10 10.5V10H11V13H5Z" fill="white"/>
<path d="M6 2V2.341C3.67 3.165 2 5.388 2 8V13.5C2 14.163 2.26339 14.7989 2.73223 15.2678C3.20107 15.7366 3.83696 16 4.5 16H11.5C12.163 16 12.7989 15.7366 13.2678 15.2678C13.7366 14.7989 14 14.163 14 13.5V8C14.0004 6.75887 13.616 5.54814 12.8996 4.53463C12.1832 3.52112 11.1702 2.75471 10 2.341V2C10 1.46957 9.78929 0.960859 9.41421 0.585786C9.03914 0.210714 8.53043 0 8 0C7.46957 0 6.96086 0.210714 6.58579 0.585786C6.21071 0.960859 6 1.46957 6 2ZM8 1C8.26522 1 8.51957 1.10536 8.70711 1.29289C8.89464 1.48043 9 1.73478 9 2V2.083C8.33803 1.97111 7.66197 1.97111 7 2.083V2C7 1.73478 7.10536 1.48043 7.29289 1.29289C7.48043 1.10536 7.73478 1 8 1ZM8 4C8.96225 3.9998 9.89233 4.34649 10.6197 4.97649C11.347 5.60649 11.8229 6.47757 11.96 7.43C11.9704 7.49556 11.9677 7.56255 11.952 7.62705C11.9362 7.69155 11.9078 7.75227 11.8684 7.80567C11.8289 7.85907 11.7792 7.90408 11.7222 7.93807C11.6652 7.97206 11.602 7.99435 11.5362 8.00365C11.4705 8.01294 11.4036 8.00906 11.3393 7.99221C11.2751 7.97537 11.2149 7.9459 11.1622 7.90553C11.1095 7.86517 11.0653 7.81471 11.0324 7.7571C10.9994 7.69949 10.9782 7.63589 10.97 7.57C10.8681 6.85489 10.5116 6.20056 9.96601 5.72719C9.42041 5.25382 8.72233 4.9932 8 4.9932C7.27767 4.9932 6.57959 5.25382 6.03399 5.72719C5.48839 6.20056 5.1319 6.85489 5.03 7.57C5.02184 7.63589 5.00065 7.69949 4.96765 7.7571C4.93465 7.81471 4.89051 7.86517 4.8378 7.90553C4.78509 7.9459 4.72488 7.97537 4.66066 7.99221C4.59644 8.00906 4.52951 8.01294 4.46378 8.00365C4.39804 7.99435 4.33482 7.97206 4.27779 7.93807C4.22076 7.90408 4.17107 7.85907 4.13162 7.80567C4.09218 7.75227 4.06376 7.69155 4.04803 7.62705C4.0323 7.56255 4.02957 7.49556 4.04 7.43C4.17712 6.47757 4.65298 5.60649 5.38033 4.97649C6.10767 4.34649 7.03775 3.9998 8 4ZM4.5 9H11.5C11.6326 9 11.7598 9.05268 11.8536 9.14645C11.9473 9.24021 12 9.36739 12 9.5V13.5C12 13.6326 11.9473 13.7598 11.8536 13.8536C11.7598 13.9473 11.6326 14 11.5 14H4.5C4.36739 14 4.24021 13.9473 4.14645 13.8536C4.05268 13.7598 4 13.6326 4 13.5V9.5C4 9.36739 4.05268 9.24021 4.14645 9.14645C4.24021 9.05268 4.36739 9 4.5 9Z" fill="white"/>
</svg>
