<svg width="16" height="16" viewBox="0 0 16 16" fill="none" xmlns="http://www.w3.org/2000/svg">
<path d="M14.0026 2V10.3333C14.0026 10.9522 13.7568 11.5457 13.3192 11.9832C12.8816 12.4208 12.2881 12.6667 11.6693 12.6667C11.0504 12.6667 10.4569 12.4208 10.0194 11.9832C9.58177 11.5457 9.33594 10.9522 9.33594 10.3333C9.33594 9.7145 9.58177 9.121 10.0194 8.68342C10.4569 8.24583 11.0504 8 11.6693 8C12.0293 8 12.3693 8.08 12.6693 8.22667V4.31333L6.0026 5.73333V11.6667C6.0026 12.2855 5.75677 12.879 5.31919 13.3166C4.8816 13.7542 4.28811 14 3.66927 14C3.05043 14 2.45694 13.7542 2.01935 13.3166C1.58177 12.879 1.33594 12.2855 1.33594 11.6667C1.33594 11.0478 1.58177 10.4543 2.01935 10.0168C2.45694 9.57917 3.05043 9.33333 3.66927 9.33333C4.02927 9.33333 4.36927 9.41333 4.66927 9.56V4L14.0026 2Z" fill="white"/>
</svg>
