<svg width="16" height="16" viewBox="0 0 16 16" fill="none" xmlns="http://www.w3.org/2000/svg">
<path d="M4.5 7C4.00555 7 3.5222 6.85338 3.11108 6.57867C2.69995 6.30397 2.37952 5.91352 2.1903 5.45671C2.00108 4.99989 1.95157 4.49723 2.04804 4.01228C2.1445 3.52732 2.3826 3.08187 2.73223 2.73223C3.08187 2.3826 3.52732 2.1445 4.01228 2.04804C4.49723 1.95157 4.99989 2.00108 5.45671 2.1903C5.91352 2.37952 6.30397 2.69995 6.57867 3.11108C6.85338 3.5222 7 4.00555 7 4.5C6.99921 5.1628 6.73556 5.79822 6.26689 6.26689C5.79822 6.73556 5.1628 6.99921 4.5 7ZM2 13.293L13.2925 2L14 2.7075L2.707 14L2 13.293ZM11.5 14C11.0055 14 10.5222 13.8534 10.1111 13.5787C9.69995 13.304 9.37952 12.9135 9.1903 12.4567C9.00108 11.9999 8.95157 11.4972 9.04804 11.0123C9.1445 10.5273 9.3826 10.0819 9.73223 9.73223C10.0819 9.3826 10.5273 9.1445 11.0123 9.04804C11.4972 8.95157 11.9999 9.00108 12.4567 9.1903C12.9135 9.37952 13.304 9.69995 13.5787 10.1111C13.8534 10.5222 14 11.0055 14 11.5C13.9992 12.1628 13.7356 12.7982 13.2669 13.2669C12.7982 13.7356 12.1628 13.9992 11.5 14Z" fill="white"/>
</svg>
