<svg width="16" height="16" viewBox="0 0 16 16" fill="none" xmlns="http://www.w3.org/2000/svg">
<path d="M4.69615 8.93733L7.05281 11.2947L6.11081 12.2373L7.05415 13.1807L6.11148 14.1233L4.46148 12.4733L2.57548 14.3593L1.63281 13.4167L3.51881 11.53L1.86881 9.88067L2.81148 8.938L3.75415 9.88L4.69615 8.93733ZM1.99748 2L4.36148 2.002L12.2395 9.88067L13.1828 8.938L14.1261 9.88067L12.4761 11.5307L14.3615 13.4167L13.4188 14.3593L11.5328 12.4733L9.88348 14.1233L8.94015 13.1807L9.88281 12.2373L1.99881 4.354L1.99748 2ZM11.6355 2L13.9975 2.002L13.9988 4.35067L11.2968 7.052L8.93948 4.69533L11.6355 2Z" fill="white"/>
</svg>
