<svg width="16" height="16" viewBox="0 0 16 16" fill="none" xmlns="http://www.w3.org/2000/svg">
<g clip-path="url(#clip0_533_193)">
<path d="M0.92 6H15.0775C15.585 6 15.9975 5.48437 15.9975 4.85C15.9975 4.62187 15.9425 4.4 15.8425 4.2125L13.955 0.66875C13.7325 0.25 13.36 0 12.9575 0H3.0425C2.6425 0 2.2675 0.25 2.045 0.66875L0.155 4.20937C0.055 4.4 0 4.62188 0 4.84688C0 5.48438 0.4125 6 0.92 6ZM1.6 7V14.5C1.6 15.3281 2.1375 16 2.8 16H8.4C9.0625 16 9.6 15.3281 9.6 14.5V7H8V12H3.2V7H1.6ZM12.8 7V15C12.8 15.5531 13.1575 16 13.6 16C14.0425 16 14.4 15.5531 14.4 15V7H12.8Z" fill="white"/>
</g>
<defs>
<clipPath id="clip0_533_193">
<rect width="16" height="16" fill="white"/>
</clipPath>
</defs>
</svg>
