<svg width="16" height="16" viewBox="0 0 16 16" fill="none" xmlns="http://www.w3.org/2000/svg">
<path d="M8.28334 1.42145C8.26608 1.42109 8.24883 1.42226 8.23178 1.42495L7.36959 2.91839C7.37909 2.94308 7.4049 2.99214 7.45375 3.05176C7.55969 3.18095 7.7565 3.34664 7.99968 3.48701C8.24281 3.62739 8.48469 3.71501 8.64956 3.74214C8.72556 3.75464 8.78097 3.75245 8.80715 3.7483L9.02559 3.37001C9.01565 3.36523 9.00575 3.36048 8.99603 3.35489C8.78478 3.23292 8.7124 2.9627 8.83437 2.75145C8.95631 2.5402 9.22644 2.46789 9.43769 2.58989C9.44737 2.59545 9.45644 2.6017 9.46559 2.60792L9.66934 2.25498C9.65987 2.2303 9.63403 2.18117 9.58515 2.12155C9.47922 1.99239 9.2824 1.8267 9.03922 1.68633C8.79609 1.54589 8.55422 1.4583 8.3894 1.43117C8.35434 1.42532 8.31889 1.42205 8.28334 1.42145ZM6.38647 2.9382C6.35451 2.93776 6.32254 2.93807 6.29059 2.93914C5.78653 2.95539 5.42465 3.13405 5.22175 3.48548C5.21312 3.50042 5.199 3.54433 5.24262 3.66133C5.28628 3.77833 5.38762 3.94289 5.54131 4.12133C5.84872 4.4782 6.35903 4.89342 6.9805 5.2522C7.602 5.61101 8.21675 5.84533 8.6795 5.93314C8.91087 5.97711 9.10409 5.98251 9.22722 5.9618C9.35034 5.94108 9.38128 5.90695 9.38987 5.89205V5.89198C9.57606 5.56961 9.55319 5.16033 9.31712 4.70823C9.24412 4.56842 9.15037 4.4272 9.038 4.28855C9.00503 4.30167 8.97184 4.31167 8.93969 4.31855C8.81219 4.34605 8.68644 4.34011 8.55469 4.31842C8.29134 4.27505 8.00115 4.16226 7.70769 3.99286C7.41419 3.82342 7.17144 3.62848 7.00219 3.42205C6.91756 3.31883 6.84944 3.21289 6.8095 3.08873C6.79789 3.05212 6.78975 3.0145 6.78519 2.97636C6.64697 2.9527 6.51331 2.93986 6.38653 2.93823L6.38647 2.9382ZM9.4249 3.08876L15.4751 11.0861V3.84458L9.42484 3.08873L9.4249 3.08876ZM4.83759 4.15076L1.32853 10.2287L1.32831 10.2291C1.31237 10.257 1.30019 10.3074 1.34187 10.4264C1.38375 10.5459 1.48287 10.7117 1.63515 10.8911C1.93965 11.25 2.4494 11.665 3.07087 12.0239C3.69234 12.3826 4.30681 12.6165 4.76978 12.7009C5.00134 12.743 5.19447 12.7459 5.31884 12.7224C5.44322 12.699 5.48059 12.663 5.49665 12.6352L5.49672 12.6353L9.00587 6.55726C8.8685 6.55345 8.72368 6.53601 8.57056 6.50695C8.01693 6.40195 7.35769 6.14436 6.6885 5.75801C6.01925 5.37167 5.46662 4.92951 5.09881 4.50258C4.99709 4.38451 4.90956 4.26783 4.83759 4.15076ZM5.88384 6.17501C6.04034 6.17783 6.18578 6.21501 6.31472 6.28945V6.2892C6.77315 6.55389 6.92753 7.23514 6.77284 8.05427C6.69581 7.53502 6.43128 7.08311 6.00003 6.83426C5.56878 6.58551 5.04525 6.58226 4.55709 6.7752C5.01137 6.38448 5.48381 6.1677 5.88384 6.17501ZM2.94822 9.4807C3.01134 10.0297 3.2754 10.5136 3.72578 10.7738C4.18359 11.0378 4.74809 11.0235 5.26203 10.793V10.7932C4.58853 11.4307 3.8535 11.6916 3.36031 11.4069C2.87125 11.1245 2.74062 10.3727 2.94822 9.48076V9.4807ZM0.932185 10.9151L0.67906 11.3535C0.663029 11.3812 0.650623 11.4316 0.692498 11.551C0.734373 11.6705 0.833435 11.8363 0.985685 12.0158C1.29006 12.3745 1.79956 12.7894 2.42069 13.1481L2.42144 13.1486H2.4215C3.04297 13.5073 3.65737 13.7412 4.1204 13.8255C4.3519 13.8677 4.54509 13.8706 4.66947 13.8471C4.79384 13.8236 4.83125 13.7877 4.84728 13.76L5.1004 13.3215C4.96265 13.3193 4.81775 13.3032 4.66509 13.2754C4.10759 13.174 3.448 12.916 2.77878 12.5296C2.10962 12.1432 1.5564 11.701 1.18978 11.269C1.08937 11.1507 1.003 11.0333 0.932185 10.9151Z" fill="white"/>
</svg>
