<svg width="48" height="48" viewBox="0 0 48 48" fill="none" xmlns="http://www.w3.org/2000/svg">
<path d="M17.925 38.298H30.075M36.5 5.5H11.5C10.4391 5.5 9.42172 5.92143 8.67157 6.67157C7.92143 7.42172 7.5 8.43913 7.5 9.5V35.247C7.49998 35.6227 7.60578 35.9908 7.80527 36.3091C8.00477 36.6275 8.2899 36.8832 8.628 37.047L24 44.5L39.373 37.047C39.7109 36.8831 39.9958 36.6273 40.1951 36.3089C40.3945 35.9906 40.5001 35.6226 40.5 35.247V9.5C40.5 8.43913 40.0786 7.42172 39.3284 6.67157C38.5783 5.92143 37.5609 5.5 36.5 5.5Z" stroke="black" stroke-linecap="round" stroke-linejoin="round"/>
<path d="M16.5084 28H12.5084V12H16.5084M35.5084 17V14C35.5084 13.4696 35.2977 12.9609 34.9226 12.5858C34.5475 12.2107 34.0388 12 33.5084 12H32.5084C31.9779 12 31.4692 12.2107 31.0942 12.5858C30.7191 12.9609 30.5084 13.4696 30.5084 14V26C30.5084 26.5304 30.7191 27.0391 31.0942 27.4142C31.4692 27.7893 31.9779 28 32.5084 28H33.5084C34.0388 28 34.5475 27.7893 34.9226 27.4142C35.2977 27.0391 35.5084 26.5304 35.5084 26V23M19.5084 28V12H22.5084C23.0388 12 23.5475 12.2107 23.9226 12.5858C24.2977 12.9609 24.5084 13.4696 24.5084 14V17.967C24.5084 18.2324 24.4556 18.4951 24.3531 18.7398C24.2506 18.9846 24.1004 19.2065 23.9113 19.3926C23.7222 19.5788 23.4979 19.7254 23.2516 19.824C23.0052 19.9227 22.7417 19.9712 22.4764 19.967L19.5084 19.902M12.4844 20H16.4844M27.5084 12V28" stroke="black" stroke-linecap="round" stroke-linejoin="round"/>
</svg>
