<svg width="16" height="16" viewBox="0 0 16 16" fill="none" xmlns="http://www.w3.org/2000/svg">
<path d="M7.43327 2.01501C7.6866 1.55967 7.81327 1.33301 8.0026 1.33301C8.19194 1.33301 8.3186 1.55967 8.57194 2.01501L8.63727 2.13234C8.70927 2.26167 8.74527 2.32567 8.80127 2.36834C8.85794 2.41101 8.92794 2.42701 9.06794 2.45834L9.1946 2.48767C9.6866 2.59901 9.9326 2.65434 9.99127 2.84234C10.0499 3.03101 9.88194 3.22701 9.5466 3.61901L9.45994 3.72034C9.3646 3.83167 9.3166 3.88701 9.29527 3.95634C9.27394 4.02567 9.28127 4.09967 9.29527 4.24834L9.3086 4.38367C9.35927 4.90701 9.3846 5.16901 9.23194 5.28501C9.0786 5.40167 8.84794 5.29501 8.38727 5.08301L8.2686 5.02834C8.13727 4.96834 8.07194 4.93767 8.0026 4.93767C7.93327 4.93767 7.86794 4.96834 7.7366 5.02834L7.61794 5.08301C7.15727 5.29501 6.9266 5.40167 6.77327 5.28501C6.61994 5.16901 6.64594 4.90701 6.6966 4.38367L6.70994 4.24834C6.72394 4.09967 6.73127 4.02567 6.70994 3.95634C6.6886 3.88767 6.6406 3.83167 6.54527 3.72034L6.4586 3.61901C6.12327 3.22701 5.95527 3.03101 6.01394 2.84234C6.0726 2.65434 6.3186 2.59901 6.8106 2.48767L6.93727 2.45834C7.07727 2.42701 7.14727 2.41167 7.20394 2.36834C7.25994 2.32567 7.29594 2.26167 7.36794 2.13234L7.43327 2.01501ZM8.66927 6.66634H7.33594C6.39327 6.66634 5.92194 6.66634 5.62927 6.95967C5.33594 7.25167 5.33594 7.72301 5.33594 8.66634V14.6663H10.6693V8.66634C10.6693 7.72367 10.6693 7.25234 10.3759 6.95967C10.0839 6.66634 9.6126 6.66634 8.66927 6.66634Z" fill="white"/>
<path opacity="0.5" d="M5.0426 12.9603C4.7506 12.667 4.27927 12.667 3.33594 12.667C2.39327 12.667 1.92194 12.667 1.62927 12.9603C1.33594 13.2523 1.33594 13.7237 1.33594 14.667H5.33594C5.33594 13.7243 5.33594 13.253 5.0426 12.9603ZM10.6693 12.667V14.667H14.6693V12.667C14.6693 11.7243 14.6693 11.253 14.3759 10.9603C14.0839 10.667 13.6126 10.667 12.6693 10.667C11.7266 10.667 11.2553 10.667 10.9626 10.9603C10.6693 11.2523 10.6693 11.7237 10.6693 12.667Z" fill="white"/>
<path d="M7.1748 8.86279V11H6.75293V9.34912L6.24609 9.51025V9.17773L7.12939 8.86279H7.1748ZM9.32812 10.6704V11H7.86914V10.7188L8.55908 9.979C8.62842 9.90186 8.68311 9.83398 8.72314 9.77539C8.76318 9.71582 8.79199 9.6626 8.80957 9.61572C8.82812 9.56787 8.8374 9.52246 8.8374 9.47949C8.8374 9.41504 8.82666 9.35986 8.80518 9.31396C8.78369 9.26709 8.75195 9.23096 8.70996 9.20557C8.66895 9.18018 8.61816 9.16748 8.55762 9.16748C8.49316 9.16748 8.4375 9.18311 8.39062 9.21436C8.34473 9.24561 8.30957 9.28906 8.28516 9.34473C8.26172 9.40039 8.25 9.46338 8.25 9.53369H7.82666C7.82666 9.40674 7.85693 9.29053 7.91748 9.18506C7.97803 9.07861 8.06348 8.99414 8.17383 8.93164C8.28418 8.86816 8.41504 8.83643 8.56641 8.83643C8.71582 8.83643 8.8418 8.86084 8.94434 8.90967C9.04785 8.95752 9.12598 9.02686 9.17871 9.11768C9.23242 9.20752 9.25928 9.31494 9.25928 9.43994C9.25928 9.51025 9.24805 9.5791 9.22559 9.64648C9.20312 9.71289 9.1709 9.7793 9.12891 9.8457C9.08789 9.91113 9.03809 9.97754 8.97949 10.0449C8.9209 10.1123 8.85596 10.1821 8.78467 10.2544L8.41406 10.6704H9.32812Z" fill="black"/>
</svg>
