<svg width="16" height="16" viewBox="0 0 16 16" fill="none" xmlns="http://www.w3.org/2000/svg">
<path d="M7.43327 2.01501C7.6866 1.55967 7.81327 1.33301 8.0026 1.33301C8.19194 1.33301 8.3186 1.55967 8.57194 2.01501L8.63727 2.13234C8.70927 2.26167 8.74527 2.32567 8.80127 2.36834C8.85794 2.41101 8.92794 2.42701 9.06794 2.45834L9.1946 2.48767C9.6866 2.59901 9.9326 2.65434 9.99127 2.84234C10.0499 3.03101 9.88194 3.22701 9.5466 3.61901L9.45994 3.72034C9.3646 3.83167 9.3166 3.88701 9.29527 3.95634C9.27394 4.02567 9.28127 4.09967 9.29527 4.24834L9.3086 4.38367C9.35927 4.90701 9.3846 5.16901 9.23194 5.28501C9.0786 5.40167 8.84794 5.29501 8.38727 5.08301L8.2686 5.02834C8.13727 4.96834 8.07194 4.93767 8.0026 4.93767C7.93327 4.93767 7.86794 4.96834 7.7366 5.02834L7.61794 5.08301C7.15727 5.29501 6.9266 5.40167 6.77327 5.28501C6.61994 5.16901 6.64594 4.90701 6.6966 4.38367L6.70994 4.24834C6.72394 4.09967 6.73127 4.02567 6.70994 3.95634C6.6886 3.88767 6.6406 3.83167 6.54527 3.72034L6.4586 3.61901C6.12327 3.22701 5.95527 3.03101 6.01394 2.84234C6.0726 2.65434 6.3186 2.59901 6.8106 2.48767L6.93727 2.45834C7.07727 2.42701 7.14727 2.41167 7.20394 2.36834C7.25994 2.32567 7.29594 2.26167 7.36794 2.13234L7.43327 2.01501ZM8.66927 6.66634H7.33594C6.39327 6.66634 5.92194 6.66634 5.62927 6.95967C5.33594 7.25167 5.33594 7.72301 5.33594 8.66634V14.6663H10.6693V8.66634C10.6693 7.72367 10.6693 7.25234 10.3759 6.95967C10.0839 6.66634 9.6126 6.66634 8.66927 6.66634Z" fill="white"/>
<path opacity="0.5" d="M5.0426 12.9603C4.7506 12.667 4.27927 12.667 3.33594 12.667C2.39327 12.667 1.92194 12.667 1.62927 12.9603C1.33594 13.2523 1.33594 13.7237 1.33594 14.667H5.33594C5.33594 13.7243 5.33594 13.253 5.0426 12.9603ZM10.6693 12.667V14.667H14.6693V12.667C14.6693 11.7243 14.6693 11.253 14.3759 10.9603C14.0839 10.667 13.6126 10.667 12.6693 10.667C11.7266 10.667 11.2553 10.667 10.9626 10.9603C10.6693 11.2523 10.6693 11.7237 10.6693 12.667Z" fill="white"/>
<path d="M7.1748 8.86279V11H6.75293V9.34912L6.24609 9.51025V9.17773L7.12939 8.86279H7.1748ZM9.30469 9.74609V10.1152C9.30469 10.2754 9.2876 10.4136 9.25342 10.5298C9.21924 10.645 9.16992 10.7397 9.10547 10.814C9.04199 10.8872 8.96631 10.9414 8.87842 10.9766C8.79053 11.0117 8.69287 11.0293 8.58545 11.0293C8.49951 11.0293 8.41943 11.0186 8.34521 10.9971C8.271 10.9746 8.2041 10.9399 8.14453 10.8931C8.08594 10.8462 8.03516 10.7871 7.99219 10.7158C7.9502 10.6436 7.91797 10.5576 7.89551 10.458C7.87305 10.3584 7.86182 10.2441 7.86182 10.1152V9.74609C7.86182 9.58594 7.87891 9.44873 7.91309 9.33447C7.94824 9.21924 7.99756 9.125 8.06104 9.05176C8.12549 8.97852 8.20166 8.9248 8.28955 8.89062C8.37744 8.85547 8.4751 8.83789 8.58252 8.83789C8.66846 8.83789 8.74805 8.84912 8.82129 8.87158C8.89551 8.89307 8.9624 8.92676 9.02197 8.97266C9.08154 9.01855 9.13232 9.07764 9.17432 9.1499C9.21631 9.22119 9.24854 9.30664 9.271 9.40625C9.29346 9.50488 9.30469 9.61816 9.30469 9.74609ZM8.88135 10.1709V9.68896C8.88135 9.61182 8.87695 9.54443 8.86816 9.48682C8.86035 9.4292 8.84814 9.38037 8.83154 9.34033C8.81494 9.29932 8.79443 9.26611 8.77002 9.24072C8.74561 9.21533 8.71777 9.19678 8.68652 9.18506C8.65527 9.17334 8.62061 9.16748 8.58252 9.16748C8.53467 9.16748 8.49219 9.17676 8.45508 9.19531C8.41895 9.21387 8.38818 9.24365 8.36279 9.28467C8.3374 9.32471 8.31787 9.37842 8.3042 9.4458C8.2915 9.51221 8.28516 9.59326 8.28516 9.68896V10.1709C8.28516 10.248 8.28906 10.3159 8.29688 10.3745C8.30566 10.4331 8.31836 10.4834 8.33496 10.5254C8.35254 10.5664 8.37305 10.6001 8.39648 10.6265C8.4209 10.6519 8.44873 10.6704 8.47998 10.6821C8.51221 10.6938 8.54736 10.6997 8.58545 10.6997C8.63232 10.6997 8.67383 10.6904 8.70996 10.6719C8.74707 10.6523 8.77832 10.6221 8.80371 10.5811C8.83008 10.5391 8.84961 10.4844 8.8623 10.417C8.875 10.3496 8.88135 10.2676 8.88135 10.1709Z" fill="black"/>
</svg>
