<svg width="16" height="16" viewBox="0 0 16 16" fill="none" xmlns="http://www.w3.org/2000/svg">
<path d="M7.43327 2.01501C7.6866 1.55967 7.81327 1.33301 8.0026 1.33301C8.19194 1.33301 8.3186 1.55967 8.57194 2.01501L8.63727 2.13234C8.70927 2.26167 8.74527 2.32567 8.80127 2.36834C8.85794 2.41101 8.92794 2.42701 9.06794 2.45834L9.1946 2.48767C9.6866 2.59901 9.9326 2.65434 9.99127 2.84234C10.0499 3.03101 9.88194 3.22701 9.5466 3.61901L9.45994 3.72034C9.3646 3.83167 9.3166 3.88701 9.29527 3.95634C9.27394 4.02567 9.28127 4.09967 9.29527 4.24834L9.3086 4.38367C9.35927 4.90701 9.3846 5.16901 9.23194 5.28501C9.0786 5.40167 8.84794 5.29501 8.38727 5.08301L8.2686 5.02834C8.13727 4.96834 8.07194 4.93767 8.0026 4.93767C7.93327 4.93767 7.86794 4.96834 7.7366 5.02834L7.61794 5.08301C7.15727 5.29501 6.9266 5.40167 6.77327 5.28501C6.61994 5.16901 6.64594 4.90701 6.6966 4.38367L6.70994 4.24834C6.72394 4.09967 6.73127 4.02567 6.70994 3.95634C6.6886 3.88767 6.6406 3.83167 6.54527 3.72034L6.4586 3.61901C6.12327 3.22701 5.95527 3.03101 6.01394 2.84234C6.0726 2.65434 6.3186 2.59901 6.8106 2.48767L6.93727 2.45834C7.07727 2.42701 7.14727 2.41167 7.20394 2.36834C7.25994 2.32567 7.29594 2.26167 7.36794 2.13234L7.43327 2.01501ZM8.66927 6.66634H7.33594C6.39327 6.66634 5.92194 6.66634 5.62927 6.95967C5.33594 7.25167 5.33594 7.72301 5.33594 8.66634V14.6663H10.6693V8.66634C10.6693 7.72367 10.6693 7.25234 10.3759 6.95967C10.0839 6.66634 9.6126 6.66634 8.66927 6.66634Z" fill="white"/>
<path opacity="0.5" d="M5.0426 12.9603C4.7506 12.667 4.27927 12.667 3.33594 12.667C2.39327 12.667 1.92194 12.667 1.62927 12.9603C1.33594 13.2523 1.33594 13.7237 1.33594 14.667H5.33594C5.33594 13.7243 5.33594 13.253 5.0426 12.9603ZM10.6693 12.667V14.667H14.6693V12.667C14.6693 11.7243 14.6693 11.253 14.3759 10.9603C14.0839 10.667 13.6126 10.667 12.6693 10.667C11.7266 10.667 11.2553 10.667 10.9626 10.9603C10.6693 11.2523 10.6693 11.7237 10.6693 12.667Z" fill="white"/>
<path d="M7.60547 10.6704V11H6.14648V10.7188L6.83643 9.979C6.90576 9.90186 6.96045 9.83398 7.00049 9.77539C7.04053 9.71582 7.06934 9.6626 7.08691 9.61572C7.10547 9.56787 7.11475 9.52246 7.11475 9.47949C7.11475 9.41504 7.104 9.35986 7.08252 9.31396C7.06104 9.26709 7.0293 9.23096 6.9873 9.20557C6.94629 9.18018 6.89551 9.16748 6.83496 9.16748C6.77051 9.16748 6.71484 9.18311 6.66797 9.21436C6.62207 9.24561 6.58691 9.28906 6.5625 9.34473C6.53906 9.40039 6.52734 9.46338 6.52734 9.53369H6.104C6.104 9.40674 6.13428 9.29053 6.19482 9.18506C6.25537 9.07861 6.34082 8.99414 6.45117 8.93164C6.56152 8.86816 6.69238 8.83643 6.84375 8.83643C6.99316 8.83643 7.11914 8.86084 7.22168 8.90967C7.3252 8.95752 7.40332 9.02686 7.45605 9.11768C7.50977 9.20752 7.53662 9.31494 7.53662 9.43994C7.53662 9.51025 7.52539 9.5791 7.50293 9.64648C7.48047 9.71289 7.44824 9.7793 7.40625 9.8457C7.36523 9.91113 7.31543 9.97754 7.25684 10.0449C7.19824 10.1123 7.1333 10.1821 7.06201 10.2544L6.69141 10.6704H7.60547ZM8.26611 10.0288L7.9292 9.94824L8.05078 8.86719H9.24902V9.2085H8.39795L8.34521 9.68164C8.37354 9.66504 8.4165 9.64746 8.47412 9.62891C8.53174 9.60938 8.59619 9.59961 8.66748 9.59961C8.771 9.59961 8.86279 9.61572 8.94287 9.64795C9.02295 9.68018 9.09082 9.72705 9.14648 9.78857C9.20312 9.8501 9.24609 9.92529 9.27539 10.0142C9.30469 10.103 9.31934 10.2036 9.31934 10.3159C9.31934 10.4106 9.30469 10.501 9.27539 10.5869C9.24609 10.6719 9.20166 10.748 9.14209 10.8154C9.08252 10.8818 9.00781 10.9341 8.91797 10.9722C8.82812 11.0103 8.72168 11.0293 8.59863 11.0293C8.50684 11.0293 8.41797 11.0156 8.33203 10.9883C8.24707 10.9609 8.17041 10.9204 8.10205 10.8667C8.03467 10.813 7.98047 10.748 7.93945 10.6719C7.89941 10.5947 7.87842 10.5068 7.87646 10.4082H8.29541C8.30127 10.4688 8.31689 10.521 8.34229 10.5649C8.36865 10.6079 8.40332 10.6411 8.44629 10.6646C8.48926 10.688 8.53955 10.6997 8.59717 10.6997C8.65088 10.6997 8.69678 10.6895 8.73486 10.6689C8.77295 10.6484 8.80371 10.6201 8.82715 10.584C8.85059 10.5469 8.86768 10.5039 8.87842 10.4551C8.89014 10.4053 8.896 10.3516 8.896 10.2939C8.896 10.2363 8.88916 10.1841 8.87549 10.1372C8.86182 10.0903 8.84082 10.0498 8.8125 10.0156C8.78418 9.98145 8.74805 9.95508 8.7041 9.93652C8.66113 9.91797 8.61084 9.90869 8.55322 9.90869C8.4751 9.90869 8.41455 9.9209 8.37158 9.94531C8.32959 9.96973 8.29443 9.99756 8.26611 10.0288Z" fill="black"/>
</svg>
