<svg width="16" height="16" viewBox="0 0 16 16" fill="none" xmlns="http://www.w3.org/2000/svg">
<path d="M7.43327 2.01501C7.6866 1.55967 7.81327 1.33301 8.0026 1.33301C8.19194 1.33301 8.3186 1.55967 8.57194 2.01501L8.63727 2.13234C8.70927 2.26167 8.74527 2.32567 8.80127 2.36834C8.85794 2.41101 8.92794 2.42701 9.06794 2.45834L9.1946 2.48767C9.6866 2.59901 9.9326 2.65434 9.99127 2.84234C10.0499 3.03101 9.88194 3.22701 9.5466 3.61901L9.45994 3.72034C9.3646 3.83167 9.3166 3.88701 9.29527 3.95634C9.27394 4.02567 9.28127 4.09967 9.29527 4.24834L9.3086 4.38367C9.35927 4.90701 9.3846 5.16901 9.23194 5.28501C9.0786 5.40167 8.84794 5.29501 8.38727 5.08301L8.2686 5.02834C8.13727 4.96834 8.07194 4.93767 8.0026 4.93767C7.93327 4.93767 7.86794 4.96834 7.7366 5.02834L7.61794 5.08301C7.15727 5.29501 6.9266 5.40167 6.77327 5.28501C6.61994 5.16901 6.64594 4.90701 6.6966 4.38367L6.70994 4.24834C6.72394 4.09967 6.73127 4.02567 6.70994 3.95634C6.6886 3.88767 6.6406 3.83167 6.54527 3.72034L6.4586 3.61901C6.12327 3.22701 5.95527 3.03101 6.01394 2.84234C6.0726 2.65434 6.3186 2.59901 6.8106 2.48767L6.93727 2.45834C7.07727 2.42701 7.14727 2.41167 7.20394 2.36834C7.25994 2.32567 7.29594 2.26167 7.36794 2.13234L7.43327 2.01501ZM8.66927 6.66634H7.33594C6.39327 6.66634 5.92194 6.66634 5.62927 6.95967C5.33594 7.25167 5.33594 7.72301 5.33594 8.66634V14.6663H10.6693V8.66634C10.6693 7.72367 10.6693 7.25234 10.3759 6.95967C10.0839 6.66634 9.6126 6.66634 8.66927 6.66634Z" fill="white"/>
<path opacity="0.5" d="M5.0426 12.9603C4.7506 12.667 4.27927 12.667 3.33594 12.667C2.39327 12.667 1.92194 12.667 1.62927 12.9603C1.33594 13.2523 1.33594 13.7237 1.33594 14.667H5.33594C5.33594 13.7243 5.33594 13.253 5.0426 12.9603ZM10.6693 12.667V14.667H14.6693V12.667C14.6693 11.7243 14.6693 11.253 14.3759 10.9603C14.0839 10.667 13.6126 10.667 12.6693 10.667C11.7266 10.667 11.2553 10.667 10.9626 10.9603C10.6693 11.2523 10.6693 11.7237 10.6693 12.667Z" fill="white"/>
<path d="M7.57861 9.75049H7.8042C7.87646 9.75049 7.93604 9.73828 7.98291 9.71387C8.02979 9.68848 8.06445 9.65332 8.08691 9.6084C8.11035 9.5625 8.12207 9.50928 8.12207 9.44873C8.12207 9.39404 8.11133 9.3457 8.08984 9.30371C8.06934 9.26074 8.0376 9.22754 7.99463 9.2041C7.95166 9.17969 7.89746 9.16748 7.83203 9.16748C7.78027 9.16748 7.73242 9.17773 7.68848 9.19824C7.64453 9.21875 7.60938 9.24756 7.58301 9.28467C7.55664 9.32178 7.54346 9.3667 7.54346 9.41943H7.12012C7.12012 9.30225 7.15137 9.2002 7.21387 9.11328C7.27734 9.02637 7.3623 8.9585 7.46875 8.90967C7.5752 8.86084 7.69238 8.83643 7.82031 8.83643C7.96484 8.83643 8.09131 8.85986 8.19971 8.90674C8.30811 8.95264 8.39258 9.02051 8.45312 9.11035C8.51367 9.2002 8.54395 9.31152 8.54395 9.44434C8.54395 9.51172 8.52832 9.57715 8.49707 9.64062C8.46582 9.70312 8.4209 9.75977 8.3623 9.81055C8.30469 9.86035 8.23438 9.90039 8.15137 9.93066C8.06836 9.95996 7.9751 9.97461 7.87158 9.97461H7.57861V9.75049ZM7.57861 10.0713V9.85303H7.87158C7.98779 9.85303 8.08984 9.86621 8.17773 9.89258C8.26562 9.91895 8.33936 9.95703 8.39893 10.0068C8.4585 10.0557 8.50342 10.1138 8.53369 10.1812C8.56396 10.2476 8.5791 10.3213 8.5791 10.4023C8.5791 10.502 8.56006 10.5908 8.52197 10.6689C8.48389 10.7461 8.43018 10.8115 8.36084 10.8652C8.29248 10.9189 8.2124 10.96 8.12061 10.9883C8.02881 11.0156 7.92871 11.0293 7.82031 11.0293C7.73047 11.0293 7.64209 11.0171 7.55518 10.9927C7.46924 10.9673 7.39111 10.9297 7.3208 10.8799C7.25146 10.8291 7.1958 10.7656 7.15381 10.6895C7.11279 10.6123 7.09229 10.521 7.09229 10.4155H7.51562C7.51562 10.4702 7.5293 10.519 7.55664 10.562C7.58398 10.605 7.62158 10.6387 7.66943 10.6631C7.71826 10.6875 7.77246 10.6997 7.83203 10.6997C7.89941 10.6997 7.95703 10.6875 8.00488 10.6631C8.05371 10.6377 8.09082 10.6025 8.11621 10.5576C8.14258 10.5117 8.15576 10.4585 8.15576 10.3979C8.15576 10.3198 8.1416 10.2573 8.11328 10.2104C8.08496 10.1626 8.04443 10.1274 7.9917 10.105C7.93896 10.0825 7.87646 10.0713 7.8042 10.0713H7.57861Z" fill="black"/>
</svg>
