<svg width="16" height="16" viewBox="0 0 16 16" fill="none" xmlns="http://www.w3.org/2000/svg">
<path d="M7.43327 2.01501C7.6866 1.55967 7.81327 1.33301 8.0026 1.33301C8.19194 1.33301 8.3186 1.55967 8.57194 2.01501L8.63727 2.13234C8.70927 2.26167 8.74527 2.32567 8.80127 2.36834C8.85794 2.41101 8.92794 2.42701 9.06794 2.45834L9.1946 2.48767C9.6866 2.59901 9.9326 2.65434 9.99127 2.84234C10.0499 3.03101 9.88194 3.22701 9.5466 3.61901L9.45994 3.72034C9.3646 3.83167 9.3166 3.88701 9.29527 3.95634C9.27394 4.02567 9.28127 4.09967 9.29527 4.24834L9.3086 4.38367C9.35927 4.90701 9.3846 5.16901 9.23194 5.28501C9.0786 5.40167 8.84794 5.29501 8.38727 5.08301L8.2686 5.02834C8.13727 4.96834 8.07194 4.93767 8.0026 4.93767C7.93327 4.93767 7.86794 4.96834 7.7366 5.02834L7.61794 5.08301C7.15727 5.29501 6.9266 5.40167 6.77327 5.28501C6.61994 5.16901 6.64594 4.90701 6.6966 4.38367L6.70994 4.24834C6.72394 4.09967 6.73127 4.02567 6.70994 3.95634C6.6886 3.88767 6.6406 3.83167 6.54527 3.72034L6.4586 3.61901C6.12327 3.22701 5.95527 3.03101 6.01394 2.84234C6.0726 2.65434 6.3186 2.59901 6.8106 2.48767L6.93727 2.45834C7.07727 2.42701 7.14727 2.41167 7.20394 2.36834C7.25994 2.32567 7.29594 2.26167 7.36794 2.13234L7.43327 2.01501ZM8.66927 6.66634H7.33594C6.39327 6.66634 5.92194 6.66634 5.62927 6.95967C5.33594 7.25167 5.33594 7.72301 5.33594 8.66634V14.6663H10.6693V8.66634C10.6693 7.72367 10.6693 7.25234 10.3759 6.95967C10.0839 6.66634 9.6126 6.66634 8.66927 6.66634Z" fill="white"/>
<path opacity="0.5" d="M5.0426 12.9603C4.7506 12.667 4.27927 12.667 3.33594 12.667C2.39327 12.667 1.92194 12.667 1.62927 12.9603C1.33594 13.2523 1.33594 13.7237 1.33594 14.667H5.33594C5.33594 13.7243 5.33594 13.253 5.0426 12.9603ZM10.6693 12.667V14.667H14.6693V12.667C14.6693 11.7243 14.6693 11.253 14.3759 10.9603C14.0839 10.667 13.6126 10.667 12.6693 10.667C11.7266 10.667 11.2553 10.667 10.9626 10.9603C10.6693 11.2523 10.6693 11.7237 10.6693 12.667Z" fill="white"/>
<path d="M7.54346 10.0288L7.20654 9.94824L7.32812 8.86719H8.52637V9.2085H7.67529L7.62256 9.68164C7.65088 9.66504 7.69385 9.64746 7.75146 9.62891C7.80908 9.60938 7.87354 9.59961 7.94482 9.59961C8.04834 9.59961 8.14014 9.61572 8.22021 9.64795C8.30029 9.68018 8.36816 9.72705 8.42383 9.78857C8.48047 9.8501 8.52344 9.92529 8.55273 10.0142C8.58203 10.103 8.59668 10.2036 8.59668 10.3159C8.59668 10.4106 8.58203 10.501 8.55273 10.5869C8.52344 10.6719 8.479 10.748 8.41943 10.8154C8.35986 10.8818 8.28516 10.9341 8.19531 10.9722C8.10547 11.0103 7.99902 11.0293 7.87598 11.0293C7.78418 11.0293 7.69531 11.0156 7.60938 10.9883C7.52441 10.9609 7.44775 10.9204 7.37939 10.8667C7.31201 10.813 7.25781 10.748 7.2168 10.6719C7.17676 10.5947 7.15576 10.5068 7.15381 10.4082H7.57275C7.57861 10.4688 7.59424 10.521 7.61963 10.5649C7.646 10.6079 7.68066 10.6411 7.72363 10.6646C7.7666 10.688 7.81689 10.6997 7.87451 10.6997C7.92822 10.6997 7.97412 10.6895 8.01221 10.6689C8.05029 10.6484 8.08105 10.6201 8.10449 10.584C8.12793 10.5469 8.14502 10.5039 8.15576 10.4551C8.16748 10.4053 8.17334 10.3516 8.17334 10.2939C8.17334 10.2363 8.1665 10.1841 8.15283 10.1372C8.13916 10.0903 8.11816 10.0498 8.08984 10.0156C8.06152 9.98145 8.02539 9.95508 7.98145 9.93652C7.93848 9.91797 7.88818 9.90869 7.83057 9.90869C7.75244 9.90869 7.69189 9.9209 7.64893 9.94531C7.60693 9.96973 7.57178 9.99756 7.54346 10.0288Z" fill="black"/>
</svg>
