<svg width="16" height="16" viewBox="0 0 16 16" fill="none" xmlns="http://www.w3.org/2000/svg">
<path d="M7.43327 2.01501C7.6866 1.55967 7.81327 1.33301 8.0026 1.33301C8.19194 1.33301 8.3186 1.55967 8.57194 2.01501L8.63727 2.13234C8.70927 2.26167 8.74527 2.32567 8.80127 2.36834C8.85794 2.41101 8.92794 2.42701 9.06794 2.45834L9.1946 2.48767C9.6866 2.59901 9.9326 2.65434 9.99127 2.84234C10.0499 3.03101 9.88194 3.22701 9.5466 3.61901L9.45994 3.72034C9.3646 3.83167 9.3166 3.88701 9.29527 3.95634C9.27394 4.02567 9.28127 4.09967 9.29527 4.24834L9.3086 4.38367C9.35927 4.90701 9.3846 5.16901 9.23194 5.28501C9.0786 5.40167 8.84794 5.29501 8.38727 5.08301L8.2686 5.02834C8.13727 4.96834 8.07194 4.93767 8.0026 4.93767C7.93327 4.93767 7.86794 4.96834 7.7366 5.02834L7.61794 5.08301C7.15727 5.29501 6.9266 5.40167 6.77327 5.28501C6.61994 5.16901 6.64594 4.90701 6.6966 4.38367L6.70994 4.24834C6.72394 4.09967 6.73127 4.02567 6.70994 3.95634C6.6886 3.88767 6.6406 3.83167 6.54527 3.72034L6.4586 3.61901C6.12327 3.22701 5.95527 3.03101 6.01394 2.84234C6.0726 2.65434 6.3186 2.59901 6.8106 2.48767L6.93727 2.45834C7.07727 2.42701 7.14727 2.41167 7.20394 2.36834C7.25994 2.32567 7.29594 2.26167 7.36794 2.13234L7.43327 2.01501ZM8.66927 6.66634H7.33594C6.39327 6.66634 5.92194 6.66634 5.62927 6.95967C5.33594 7.25167 5.33594 7.72301 5.33594 8.66634V14.6663H10.6693V8.66634C10.6693 7.72367 10.6693 7.25234 10.3759 6.95967C10.0839 6.66634 9.6126 6.66634 8.66927 6.66634Z" fill="white"/>
<path opacity="0.5" d="M5.0426 12.9603C4.7506 12.667 4.27927 12.667 3.33594 12.667C2.39327 12.667 1.92194 12.667 1.62927 12.9603C1.33594 13.2523 1.33594 13.7237 1.33594 14.667H5.33594C5.33594 13.7243 5.33594 13.253 5.0426 12.9603ZM10.6693 12.667V14.667H14.6693V12.667C14.6693 11.7243 14.6693 11.253 14.3759 10.9603C14.0839 10.667 13.6126 10.667 12.6693 10.667C11.7266 10.667 11.2553 10.667 10.9626 10.9603C10.6693 11.2523 10.6693 11.7237 10.6693 12.667Z" fill="white"/>
<path d="M8.23486 8.84521H8.29639V9.18213H8.27148C8.16016 9.18213 8.06104 9.19873 7.97412 9.23193C7.88721 9.26514 7.81348 9.3125 7.75293 9.37402C7.69336 9.43457 7.64746 9.50781 7.61523 9.59375C7.58398 9.67969 7.56836 9.77588 7.56836 9.88232V10.2368C7.56836 10.313 7.57568 10.3804 7.59033 10.439C7.60596 10.4966 7.62793 10.5449 7.65625 10.584C7.68555 10.6221 7.71973 10.6509 7.75879 10.6704C7.79785 10.689 7.8418 10.6982 7.89062 10.6982C7.93652 10.6982 7.97803 10.6885 8.01514 10.6689C8.05322 10.6494 8.08545 10.6221 8.11182 10.5869C8.13916 10.5508 8.15967 10.5088 8.17334 10.4609C8.18799 10.4121 8.19531 10.3589 8.19531 10.3013C8.19531 10.2437 8.18799 10.1904 8.17334 10.1416C8.15967 10.0928 8.13916 10.0508 8.11182 10.0156C8.08447 9.97949 8.05127 9.95166 8.01221 9.93213C7.97314 9.9126 7.9292 9.90283 7.88037 9.90283C7.81396 9.90283 7.75537 9.91846 7.70459 9.94971C7.65479 9.97998 7.61572 10.019 7.5874 10.0669C7.55908 10.1147 7.54395 10.165 7.54199 10.2178L7.41455 10.1357C7.41748 10.0605 7.43311 9.98926 7.46143 9.92188C7.49072 9.85449 7.53076 9.79492 7.58154 9.74316C7.6333 9.69043 7.69531 9.64941 7.76758 9.62012C7.83984 9.58984 7.92139 9.57471 8.01221 9.57471C8.11182 9.57471 8.19922 9.59375 8.27441 9.63184C8.35059 9.66992 8.41406 9.72217 8.46484 9.78857C8.51562 9.85498 8.55371 9.93164 8.5791 10.0186C8.60449 10.1055 8.61719 10.1982 8.61719 10.2969C8.61719 10.4004 8.6001 10.4966 8.56592 10.5854C8.53271 10.6743 8.48438 10.752 8.4209 10.8184C8.3584 10.8848 8.2832 10.9365 8.19531 10.9736C8.10742 11.0107 8.00879 11.0293 7.89941 11.0293C7.78613 11.0293 7.68311 11.0088 7.59033 10.9678C7.49854 10.9258 7.41943 10.8672 7.35303 10.792C7.28662 10.7168 7.23535 10.6274 7.19922 10.5239C7.16406 10.4204 7.14648 10.3071 7.14648 10.1841V10.02C7.14648 9.84814 7.17139 9.69092 7.22119 9.54834C7.27197 9.40479 7.34473 9.28076 7.43945 9.17627C7.53418 9.0708 7.64844 8.98926 7.78223 8.93164C7.91602 8.87402 8.06689 8.84521 8.23486 8.84521Z" fill="black"/>
</svg>
