<svg width="16" height="16" viewBox="0 0 16 16" fill="none" xmlns="http://www.w3.org/2000/svg">
<path d="M12.6693 2.66683H12.0026V2.00016C12.0026 1.60016 11.7359 1.3335 11.3359 1.3335C10.9359 1.3335 10.6693 1.60016 10.6693 2.00016V2.66683H5.33594V2.00016C5.33594 1.60016 5.06927 1.3335 4.66927 1.3335C4.26927 1.3335 4.0026 1.60016 4.0026 2.00016V2.66683H3.33594C2.2026 2.66683 1.33594 3.5335 1.33594 4.66683V5.3335H14.6693V4.66683C14.6693 3.5335 13.8026 2.66683 12.6693 2.66683ZM1.33594 12.6668C1.33594 13.8002 2.2026 14.6668 3.33594 14.6668H12.6693C13.8026 14.6668 14.6693 13.8002 14.6693 12.6668V6.66683H1.33594V12.6668ZM11.3359 8.00016C11.7359 8.00016 12.0026 8.26683 12.0026 8.66683C12.0026 9.06683 11.7359 9.3335 11.3359 9.3335C10.9359 9.3335 10.6693 9.06683 10.6693 8.66683C10.6693 8.26683 10.9359 8.00016 11.3359 8.00016ZM11.3359 10.6668C11.7359 10.6668 12.0026 10.9335 12.0026 11.3335C12.0026 11.7335 11.7359 12.0002 11.3359 12.0002C10.9359 12.0002 10.6693 11.7335 10.6693 11.3335C10.6693 10.9335 10.9359 10.6668 11.3359 10.6668ZM8.0026 8.00016C8.4026 8.00016 8.66927 8.26683 8.66927 8.66683C8.66927 9.06683 8.4026 9.3335 8.0026 9.3335C7.6026 9.3335 7.33594 9.06683 7.33594 8.66683C7.33594 8.26683 7.6026 8.00016 8.0026 8.00016ZM8.0026 10.6668C8.4026 10.6668 8.66927 10.9335 8.66927 11.3335C8.66927 11.7335 8.4026 12.0002 8.0026 12.0002C7.6026 12.0002 7.33594 11.7335 7.33594 11.3335C7.33594 10.9335 7.6026 10.6668 8.0026 10.6668ZM4.66927 8.00016C5.06927 8.00016 5.33594 8.26683 5.33594 8.66683C5.33594 9.06683 5.06927 9.3335 4.66927 9.3335C4.26927 9.3335 4.0026 9.06683 4.0026 8.66683C4.0026 8.26683 4.26927 8.00016 4.66927 8.00016ZM4.66927 10.6668C5.06927 10.6668 5.33594 10.9335 5.33594 11.3335C5.33594 11.7335 5.06927 12.0002 4.66927 12.0002C4.26927 12.0002 4.0026 11.7335 4.0026 11.3335C4.0026 10.9335 4.26927 10.6668 4.66927 10.6668Z" fill="white"/>
</svg>
