<svg width="16" height="16" viewBox="0 0 16 16" fill="none" xmlns="http://www.w3.org/2000/svg">
<path d="M9.33034 3.33308C9.33034 3.68642 9.19301 4.00775 8.96834 4.24642L10.7177 6.43308C10.7414 6.46293 10.7747 6.48371 10.812 6.49196C10.8492 6.50021 10.8882 6.49543 10.9223 6.47842L12.689 5.59442C12.6508 5.401 12.6559 5.20153 12.704 5.01032C12.752 4.81912 12.8417 4.6409 12.9668 4.48847C13.0918 4.33604 13.249 4.21317 13.4271 4.12868C13.6052 4.04418 13.7999 4.00015 13.997 3.99975C14.3248 3.99982 14.6411 4.12063 14.8854 4.3391C15.1298 4.55758 15.2851 4.85841 15.3217 5.18415C15.3583 5.50988 15.2737 5.83769 15.0839 6.10497C14.8942 6.37224 14.6126 6.56025 14.293 6.63308L13.0903 13.0484C13.0401 13.3158 12.898 13.5572 12.6886 13.731C12.4793 13.9047 12.2157 13.9998 11.9437 13.9998H4.05034C3.77827 13.9998 3.51475 13.9047 3.30537 13.731C3.09598 13.5572 2.95389 13.3158 2.90367 13.0484L1.70101 6.63308C1.44541 6.57481 1.21267 6.44248 1.03188 6.25265C0.851083 6.06281 0.730261 5.8239 0.684518 5.56577C0.638775 5.30764 0.67014 5.04175 0.774693 4.80135C0.879245 4.56095 1.05234 4.3567 1.27235 4.21415C1.49235 4.07159 1.7495 3.99705 2.01164 3.99985C2.27377 4.00265 2.52927 4.08267 2.74618 4.22989C2.96309 4.37711 3.13178 4.585 3.23118 4.82758C3.33057 5.07016 3.35625 5.33666 3.30501 5.59375L5.07167 6.47775C5.10582 6.49476 5.14478 6.49954 5.18203 6.49129C5.21928 6.48304 5.25257 6.46226 5.27634 6.43242L7.02567 4.24575C6.87663 4.08725 6.76864 3.89469 6.71112 3.68487C6.6536 3.47505 6.64829 3.25433 6.69567 3.04199C6.74306 2.82965 6.84168 2.63212 6.98294 2.46665C7.1242 2.30118 7.30381 2.17279 7.50609 2.09269C7.70837 2.01258 7.92718 1.9832 8.14343 2.00709C8.35968 2.03098 8.5668 2.10743 8.74671 2.22976C8.92663 2.35209 9.07388 2.5166 9.17561 2.70891C9.27734 2.90123 9.33046 3.11552 9.33034 3.33308ZM7.99701 11.3331C8.35063 11.3331 8.68977 11.1926 8.93982 10.9426C9.18986 10.6925 9.33034 10.3534 9.33034 9.99975C9.33034 9.64613 9.18986 9.30699 8.93982 9.05694C8.68977 8.80689 8.35063 8.66642 7.99701 8.66642C7.64338 8.66642 7.30425 8.80689 7.0542 9.05694C6.80415 9.30699 6.66367 9.64613 6.66367 9.99975C6.66367 10.3534 6.80415 10.6925 7.0542 10.9426C7.30425 11.1926 7.64338 11.3331 7.99701 11.3331Z" fill="white"/>
</svg>
